<?xml version="1.0" encoding="UTF-8"?>
<svg version="1.1" xmlns="http://www.w3.org/2000/svg" width="512" height="512">
<path d="M0 0 C1.19302734 -0.01546875 1.19302734 -0.01546875 2.41015625 -0.03125 C9.41844519 1.44189883 14.46802083 7.76374751 19.29443359 12.64575195 C20.52005257 13.87334229 20.52005257 13.87334229 21.77043152 15.12573242 C24.46356515 17.82534316 27.14965003 20.53185958 29.8359375 23.23828125 C31.71340918 25.12202751 33.59132042 27.0053242 35.46987915 28.88798523 C39.90866948 33.33813443 44.34276159 37.79293087 48.77479994 42.24980372 C56.69806707 50.21740577 64.62685529 58.17950342 72.56101286 66.13626069 C75.78586594 69.37080082 79.00615262 72.6098449 82.22543335 75.84992981 C83.92409632 77.55542592 85.62287178 79.26081 87.32177734 80.96606445 C88.07840164 81.72942612 88.83502594 82.49278778 89.61457825 83.27928162 C92.84633937 86.51786926 96.089639 89.67528992 99.57406616 92.64152527 C106.16725696 98.32905702 112.21257655 104.61854004 118.36816406 110.76953125 C119.82077375 112.2175061 121.27357849 113.66528529 122.7265625 115.11288452 C126.65437706 119.02764515 130.57891048 122.94567838 134.50243092 126.86474228 C136.95574053 129.31511239 139.40963236 131.764898 141.86370087 134.21450806 C149.54824421 141.88540068 157.23080001 149.55827556 164.91045594 157.23406124 C173.76517584 166.08429333 182.6264092 174.92793503 191.49333405 183.76593876 C198.35739943 190.608393 205.21569445 197.45659593 212.06963134 204.30919552 C216.15952493 208.39804154 220.25180798 212.48442554 224.35010529 216.56484985 C228.20134993 220.39962177 232.04537819 224.24148284 235.88400269 228.08888626 C237.29230292 229.49795704 238.7031644 230.90447342 240.11678314 232.30820847 C242.04877426 234.22748225 243.97124431 236.15582623 245.8916626 238.08666992 C246.45041462 238.63736554 247.00916665 239.18806116 247.58485055 239.75544453 C251.66193653 243.88434068 255.28929104 248.29708512 256.46875 254.125 C256.3950672 259.72489308 255.91438053 264.30032504 251.9375 268.5 C247.2473174 271.92861505 242.75910717 273.33165817 236.9375 272.5 C229.58106997 269.5306953 224.84416073 264.96219257 219.31970215 259.36322021 C218.3731949 258.41845949 217.42580819 257.47457918 216.47762537 256.5315001 C213.88710603 253.94988859 211.30916436 251.35603322 208.73317337 248.75993586 C205.94845753 245.95789881 203.15214191 243.1674794 200.35723877 240.37561035 C195.52059389 235.54105989 190.69130968 230.69925694 185.86698914 225.85240936 C178.89188395 218.84475541 171.90572107 211.84821132 164.91683561 204.85430387 C153.57733958 193.50605971 142.24679956 182.14891716 130.921875 170.78613281 C119.92266461 159.75018988 108.91924863 148.7184682 97.91015625 137.69238281 C97.23122305 137.01239871 96.55228984 136.33241462 95.85278291 135.63182494 C92.44664865 132.22047042 89.0404316 128.80919857 85.63417339 125.39796782 C57.3891032 97.1114506 29.15855932 68.81047139 0.9375 40.5 C-2.35974626 41.94081145 -4.5300604 43.72174818 -7.06187057 46.26444817 C-7.85214858 47.05321087 -8.64242658 47.84197357 -9.4566524 48.65463817 C-10.31889839 49.52543832 -11.18114439 50.39623848 -12.06951904 51.29342651 C-12.99017505 52.21519593 -13.91083106 53.13696535 -14.85938573 54.08666718 C-17.41615513 56.64673031 -19.96664848 59.2129678 -22.51620579 61.78021073 C-25.26655553 64.54740837 -28.02273087 67.30879212 -30.77828979 70.07080078 C-35.55359153 74.85870546 -40.3254351 79.65003422 -45.0951767 84.44347763 C-51.9981382 91.3803793 -58.90850778 98.3098644 -65.82110468 105.23716308 C-77.04464657 116.48460582 -88.2651822 127.7350415 -99.48242188 138.98876953 C-100.15394032 139.66246822 -100.82545877 140.33616692 -101.51732627 141.03028072 C-111.04390472 150.5880703 -120.56748802 160.14883876 -130.0898644 169.71081461 C-130.76017009 170.38390692 -131.43047577 171.05699923 -132.12109375 171.75048828 C-132.79058063 172.42276222 -133.46006751 173.09503616 -134.14984187 173.78768204 C-145.31630204 185.00022548 -156.49048702 196.20503359 -167.67102551 207.40353882 C-174.56657416 214.31078999 -181.45553396 221.22448571 -188.33615187 228.14661075 C-193.05302687 232.89092131 -197.77711071 237.62797263 -202.50691459 242.3593937 C-205.23505447 245.08894038 -207.95980899 247.82165721 -210.6758461 250.5632515 C-213.62229249 253.53727632 -216.58407277 256.49554799 -219.54754639 259.4526062 C-220.82753104 260.75211427 -220.82753104 260.75211427 -222.13337398 262.07787502 C-227.60956164 267.5080296 -233.04876529 272.49879081 -241.125 273 C-247.07663195 272.24423721 -250.34939348 270.25703233 -254.5 266 C-256.7834623 260.88504444 -257.43005342 255.96373239 -256.0625 250.5 C-251.40383256 243.38085376 -245.26920156 237.4207301 -239.27038574 231.44718933 C-238.29133602 230.46511294 -237.31271958 229.48260445 -236.33449507 228.49970609 C-233.66611568 225.8211052 -230.99160516 223.14870294 -228.31596541 220.47735703 C-225.42345659 217.58732597 -222.53671328 214.69154521 -219.64918518 211.79653931 C-214.0005455 206.13518181 -208.34647215 200.47928176 -202.6902982 194.82545259 C-198.09319825 190.23013846 -193.49787378 185.63305605 -188.90379333 181.03472328 C-188.24900221 180.37933697 -187.59421109 179.72395066 -186.91957781 179.04870415 C-185.58925849 177.71717305 -184.25894035 176.38564078 -182.92862338 175.05410735 C-170.46786779 162.58248843 -158.00061473 150.11738052 -145.53137559 137.6542444 C-134.12605176 126.25409427 -122.72897316 114.84574158 -111.33573931 103.43350991 C-99.62860949 91.7070089 -87.91593658 79.98607115 -76.19723749 68.27113134 C-69.62143831 61.69724457 -63.04785968 55.1211736 -56.48008728 48.53926659 C-50.89185841 42.9391325 -45.29841767 37.34426904 -39.69817674 31.75614621 C-36.84188605 28.90574886 -33.98805485 26.05299954 -31.1407032 23.19367027 C-28.53301549 20.57514074 -25.91847253 17.96366399 -23.29834992 15.35757867 C-21.90605014 13.96918406 -20.52110792 12.57342317 -19.13646269 11.17739457 C-7.75996138 -0.10094259 -7.75996138 -0.10094259 0 0 Z " fill="#ABABAB" transform="translate(256.0625,34.5)"/>
<path d="M0 0 C4.65447242 2.45087063 7.39834197 5.20888422 9.08018303 10.21566868 C9.97594271 13.90102297 10.2466024 16.98321154 10.24050903 20.7641449 C10.24326403 22.08364608 10.24601902 23.40314726 10.2488575 24.76263332 C10.2417655 26.21341984 10.23448972 27.66420546 10.22705078 29.11499023 C10.22643756 30.67776257 10.22670603 32.24053545 10.2277813 33.80330753 C10.22823148 37.97568245 10.21666792 42.14794187 10.20256042 46.32028961 C10.19114234 50.24026337 10.19063265 54.16020952 10.18920898 58.0802002 C10.17872827 69.53264867 10.15080584 80.98507581 10.125 92.4375 C10.08375 118.033125 10.0425 143.62875 10 170 C111.64 170 213.28 170 318 170 C317.92082628 118.97544278 317.92082628 118.97544278 317.81982422 67.95092773 C317.81079102 58.0802002 317.81079102 58.0802002 317.80911255 53.45863342 C317.80724998 50.23224637 317.79975784 47.00592519 317.78884888 43.77955627 C317.77510879 39.66117852 317.77102178 35.54289627 317.77385545 31.42449772 C317.77326309 29.9148922 317.76931018 28.40528327 317.76156974 26.89569747 C317.75157873 24.85187092 317.75522361 22.80799142 317.75949097 20.7641449 C317.75672559 19.04822726 317.75672559 19.04822726 317.75390434 17.29764462 C318.16966527 11.72651107 319.20367075 6.94342025 323.375 3.0625 C327.80178028 -0.52416139 331.64425775 -0.84078672 337.22265625 -0.49609375 C342.01024416 0.35907315 344.67510567 2.49236162 347.8125 6.0625 C350.25844412 10.05325093 350.13436838 13.52174735 350.15390015 18.10246277 C350.1582824 18.83033739 350.16266465 19.55821201 350.1671797 20.30814344 C350.18056349 22.7538528 350.18674563 25.19952612 350.19287109 27.64526367 C350.20077243 29.39625206 350.2090414 31.14723883 350.21765137 32.89822388 C350.24386916 38.65478969 350.25917938 44.41136276 350.2734375 50.16796875 C350.2787974 52.14988014 350.2841749 54.13179148 350.28956985 56.11370277 C350.31119876 64.35846292 350.32993512 72.6032211 350.34119225 80.84800243 C350.35742899 92.6620729 350.39060004 104.47581434 350.44759309 116.28976077 C350.48630332 124.59730858 350.50582626 132.90476844 350.51111281 141.21240407 C350.51476494 146.17368064 350.52677157 151.13460626 350.55921555 156.09578514 C350.58931494 160.76540573 350.59560134 165.43446338 350.58383179 170.10416031 C350.58361121 171.8149723 350.59190361 173.52581055 350.60948563 175.23653221 C350.76022319 190.75187242 350.76022319 190.75187242 346.65917397 196.56496143 C342.44797213 200.20727814 338.28611944 201.37499078 332.8151865 201.38031673 C331.58836865 201.38875668 330.3615508 201.39719662 329.09755665 201.40589231 C327.74444431 201.40009766 326.39133318 201.39401666 325.03822327 201.38768005 C323.59434944 201.3918541 322.1504789 201.39733202 320.70661443 201.40399987 C316.74306857 201.4184639 312.77973048 201.41420681 308.8161732 201.40683305 C304.54001129 201.40210606 300.26389463 201.41460706 295.98774719 201.42485046 C287.61211313 201.44205286 279.23655405 201.44287551 270.86090691 201.43763756 C264.05379813 201.4335974 257.24671152 201.43503759 250.43960381 201.44038582 C249.47106137 201.44113424 248.50251894 201.44188266 247.50462673 201.44265376 C245.53708605 201.44418523 243.56954537 201.44572358 241.6020047 201.44726873 C223.14789995 201.46099893 204.69383759 201.45555238 186.23973381 201.44408352 C169.35423496 201.43415004 152.46884567 201.44709287 135.58336372 201.47101771 C118.24760831 201.4953956 100.91190397 201.50501984 83.57613176 201.49836498 C73.84248604 201.49486992 64.1089246 201.4971238 54.37529182 201.51461601 C46.08948023 201.52932158 37.80381226 201.52999497 29.51800353 201.5125451 C25.29027336 201.50401923 21.06279994 201.50192412 16.83508301 201.51719666 C12.9643197 201.53100665 9.09403401 201.52632856 5.2232986 201.50695742 C3.82363326 201.50318572 2.42392999 201.50615308 1.02429832 201.51656907 C-12.50232143 201.61006933 -12.50232143 201.61006933 -18 197 C-21.76619187 192.43417049 -22.50025711 188.31987942 -22.50120544 182.40306091 C-22.50673984 181.67035746 -22.51227424 180.93765401 -22.51797634 180.18274742 C-22.53151497 177.74444485 -22.51665163 175.30717804 -22.50170898 172.86889648 C-22.50549462 171.1140703 -22.51099667 169.35924711 -22.51808167 167.60443115 C-22.53202069 162.85033462 -22.52087786 158.09660062 -22.50437045 153.34252429 C-22.49050091 148.36319886 -22.49698212 143.38389406 -22.50050354 138.40455627 C-22.5032039 130.04446584 -22.48974413 121.68451913 -22.46655273 113.32446289 C-22.43993542 103.66261893 -22.43819933 94.0010151 -22.4499411 84.33914703 C-22.46072385 75.03849115 -22.45452845 65.73792202 -22.44038582 56.43727303 C-22.43463122 52.48165902 -22.43470455 48.52610862 -22.43945122 44.5704937 C-22.44422702 39.9123752 -22.4340943 35.25451935 -22.41249657 30.59645081 C-22.40693708 28.88805082 -22.40645571 27.17962556 -22.41144943 25.47122383 C-22.41741586 23.13717726 -22.4048719 20.80393008 -22.38768005 18.46995544 C-22.38525016 17.16457038 -22.38282026 15.85918531 -22.38031673 14.51424313 C-21.82463343 9.37955917 -20.26311372 6.13988311 -16.4375 2.6875 C-11.26155513 -0.89584645 -6.16250048 -0.9320782 0 0 Z " fill="#A9A9A9" transform="translate(92,276)"/>
</svg>
